<mxfile host="app.diagrams.net" modified="2024-05-19T05:56:30.523Z" agent="Mozilla/5.0 (Windows NT 10.0; Win64; x64) AppleWebKit/537.36 (KHTML, like Gecko) Chrome/124.0.0.0 Safari/537.36" version="24.0.8" etag="kOlF_EU_3sAjtlfP_Z_S" type="github">
  <diagram name="Trang-1" id="nbg5TzSZPiIkrkzs1---">
    <mxGraphModel>
      <root>
        <mxCell id="0" />
        <mxCell id="1" parent="0" />
      </root>
    </mxGraphModel>
  </diagram>
</mxfile>
